<?xml version="1.0" encoding="UTF-8" standalone="no"?>
<!-- Created with Inkscape (http://www.inkscape.org/) -->

<svg
   version="1.1"
   id="svg1"
   width="190.8201"
   height="51.793945"
   viewBox="0 0 190.8201 51.793944"
   xmlns="http://www.w3.org/2000/svg"
   xmlns:svg="http://www.w3.org/2000/svg">
  <defs
     id="defs1">
    <clipPath
       clipPathUnits="userSpaceOnUse"
       id="clipPath321">
      <path
         d="M 0,841.89 H 595.276 V 0 H 0 Z"
         transform="translate(-107.55621,-761.53122)"
         id="path321" />
    </clipPath>
    <clipPath
       clipPathUnits="userSpaceOnUse"
       id="clipPath323">
      <path
         d="M 0,841.89 H 595.276 V 0 H 0 Z"
         transform="translate(-119.5522,-765.94732)"
         id="path323" />
    </clipPath>
    <clipPath
       clipPathUnits="userSpaceOnUse"
       id="clipPath325">
      <path
         d="M 0,841.89 H 595.276 V 0 H 0 Z"
         transform="translate(-126.05571,-767.30862)"
         id="path325" />
    </clipPath>
    <clipPath
       clipPathUnits="userSpaceOnUse"
       id="clipPath327">
      <path
         d="M 0,841.89 H 595.276 V 0 H 0 Z"
         transform="translate(-129.33201,-766.14602)"
         id="path327" />
    </clipPath>
    <clipPath
       clipPathUnits="userSpaceOnUse"
       id="clipPath329">
      <path
         d="M 0,841.89 H 595.276 V 0 H 0 Z"
         transform="translate(-137.4565,-765.31642)"
         id="path329" />
    </clipPath>
    <clipPath
       clipPathUnits="userSpaceOnUse"
       id="clipPath331">
      <path
         d="M 0,841.89 H 595.276 V 0 H 0 Z"
         transform="translate(-141.3193,-763.55712)"
         id="path331" />
    </clipPath>
    <clipPath
       clipPathUnits="userSpaceOnUse"
       id="clipPath333">
      <path
         d="M 0,841.89 H 595.276 V 0 H 0 Z"
         transform="translate(-146.93901,-761.53122)"
         id="path333" />
    </clipPath>
    <clipPath
       clipPathUnits="userSpaceOnUse"
       id="clipPath335">
      <path
         d="M 0,841.89 H 595.276 V 0 H 0 Z"
         transform="translate(-158.0586,-765.31592)"
         id="path335" />
    </clipPath>
    <clipPath
       clipPathUnits="userSpaceOnUse"
       id="clipPath337">
      <path
         d="M 0,841.89 H 595.276 V 0 H 0 Z"
         transform="translate(-161.86431,-765.98052)"
         id="path337" />
    </clipPath>
    <clipPath
       clipPathUnits="userSpaceOnUse"
       id="clipPath339">
      <path
         d="M 0,841.89 H 595.276 V 0 H 0 Z"
         transform="translate(-166.49901,-766.01372)"
         id="path339" />
    </clipPath>
    <clipPath
       clipPathUnits="userSpaceOnUse"
       id="clipPath341">
      <path
         d="M 0,841.89 H 595.276 V 0 H 0 Z"
         transform="translate(-177.17091,-766.51172)"
         id="path341" />
    </clipPath>
    <clipPath
       clipPathUnits="userSpaceOnUse"
       id="clipPath343">
      <path
         d="M 0,841.89 H 595.276 V 0 H 0 Z"
         transform="translate(-179.5054,-766.01372)"
         id="path343" />
    </clipPath>
    <clipPath
       clipPathUnits="userSpaceOnUse"
       id="clipPath345">
      <path
         d="M 0,841.89 H 595.276 V 0 H 0 Z"
         transform="translate(-189.98001,-770.32962)"
         id="path345" />
    </clipPath>
    <clipPath
       clipPathUnits="userSpaceOnUse"
       id="clipPath347">
      <path
         d="M 0,841.89 H 595.276 V 0 H 0 Z"
         transform="translate(-194.1987,-765.31592)"
         id="path347" />
    </clipPath>
    <clipPath
       clipPathUnits="userSpaceOnUse"
       id="clipPath349">
      <path
         d="M 0,841.89 H 595.276 V 0 H 0 Z"
         transform="translate(-197.4985,-761.92972)"
         id="path349" />
    </clipPath>
    <clipPath
       clipPathUnits="userSpaceOnUse"
       id="clipPath351">
      <path
         d="M 0,841.89 H 595.276 V 0 H 0 Z"
         transform="translate(-116.4673,-787.26032)"
         id="path351" />
    </clipPath>
    <clipPath
       clipPathUnits="userSpaceOnUse"
       id="clipPath353">
      <path
         d="M 0,841.89 H 595.276 V 0 H 0 Z"
         transform="translate(-118.4028,-775.22512)"
         id="path353" />
    </clipPath>
    <clipPath
       clipPathUnits="userSpaceOnUse"
       id="clipPath355">
      <path
         d="M 0,841.89 H 595.276 V 0 H 0 Z"
         id="path355" />
    </clipPath>
    <clipPath
       clipPathUnits="userSpaceOnUse"
       id="clipPath357">
      <path
         d="M 0,841.89 H 595.276 V 0 H 0 Z"
         transform="translate(-137.07321,-775.22512)"
         id="path357" />
    </clipPath>
    <clipPath
       clipPathUnits="userSpaceOnUse"
       id="clipPath359">
      <path
         d="M 0,841.89 H 595.276 V 0 H 0 Z"
         transform="translate(-144.9541,-775.22512)"
         id="path359" />
    </clipPath>
    <clipPath
       clipPathUnits="userSpaceOnUse"
       id="clipPath361">
      <path
         d="M 0,841.89 H 595.276 V 0 H 0 Z"
         transform="translate(-153.8896,-775.22512)"
         id="path361" />
    </clipPath>
    <clipPath
       clipPathUnits="userSpaceOnUse"
       id="clipPath363">
      <path
         d="M 0,841.89 H 595.276 V 0 H 0 Z"
         transform="translate(-163.42581,-775.52732)"
         id="path363" />
    </clipPath>
    <clipPath
       clipPathUnits="userSpaceOnUse"
       id="clipPath365">
      <path
         d="M 0,841.89 H 595.276 V 0 H 0 Z"
         id="path365" />
    </clipPath>
    <clipPath
       clipPathUnits="userSpaceOnUse"
       id="clipPath367">
      <path
         d="M 0,841.89 H 595.276 V 0 H 0 Z"
         transform="translate(-179.23491,-775.22512)"
         id="path367" />
    </clipPath>
    <clipPath
       clipPathUnits="userSpaceOnUse"
       id="clipPath369">
      <path
         d="M 0,841.89 H 595.276 V 0 H 0 Z"
         transform="translate(-183.9043,-775.22512)"
         id="path369" />
    </clipPath>
    <clipPath
       clipPathUnits="userSpaceOnUse"
       id="clipPath371">
      <path
         d="M 0,841.89 H 595.276 V 0 H 0 Z"
         transform="translate(-195.6987,-775.52732)"
         id="path371" />
    </clipPath>
    <clipPath
       clipPathUnits="userSpaceOnUse"
       id="clipPath373">
      <path
         d="M 0,841.89 H 595.276 V 0 H 0 Z"
         transform="translate(-82.142605,-757.11282)"
         id="path373" />
    </clipPath>
    <clipPath
       clipPathUnits="userSpaceOnUse"
       id="clipPath375">
      <path
         d="M 0,841.89 H 595.276 V 0 H 0 Z"
         transform="translate(-100.9609,-767.12112)"
         id="path375" />
    </clipPath>
    <clipPath
       clipPathUnits="userSpaceOnUse"
       id="clipPath377">
      <path
         d="M 0,841.89 H 595.276 V 0 H 0 Z"
         transform="translate(-64.914602,-769.10742)"
         id="path377" />
    </clipPath>
    <clipPath
       clipPathUnits="userSpaceOnUse"
       id="clipPath379">
      <path
         d="M 0,841.89 H 595.276 V 0 H 0 Z"
         transform="translate(-97.9243,-765.69582)"
         id="path379" />
    </clipPath>
    <clipPath
       clipPathUnits="userSpaceOnUse"
       id="clipPath381">
      <path
         d="M 0,841.89 H 595.276 V 0 H 0 Z"
         transform="translate(-83.7109,-763.86622)"
         id="path381" />
    </clipPath>
  </defs>
  <g
     id="g1"
     style="display:inline"
     transform="translate(-79.48349,-67.051728)">
    <path
       id="path320"
       d="M 0,0 C 0.43,0.034 0.893,0.067 1.323,0.067 1.752,0.067 2.183,0.034 2.615,0 L 2.68,0.465 2.183,0.498 c -0.099,0 -0.231,0 -0.33,0.066 C 1.72,0.631 1.687,0.73 1.687,0.897 c 0,0.132 0,0.265 0.033,0.398 L 3.044,7.371 4.765,-0.166 H 5.062 L 9.432,7.869 8.438,1.428 C 8.406,1.229 8.373,1.029 8.306,0.83 8.24,0.665 8.208,0.598 8.008,0.564 7.81,0.465 7.545,0.465 7.313,0.465 L 7.279,0 c 0.597,0.034 1.192,0.067 1.822,0.067 0.628,0 1.225,-0.033 1.853,-0.067 l 0.032,0.465 H 10.689 C 10.49,0.498 10.292,0.498 10.093,0.564 9.961,0.598 9.928,0.73 9.928,0.897 c 0,0.199 0.033,0.431 0.065,0.663 l 0.067,0.499 0.894,5.776 c 0.066,0.266 0.099,0.498 0.231,0.731 0.232,0.266 0.596,0.133 0.928,0.199 l 0.032,0.499 C 11.682,9.197 11.252,9.197 10.789,9.197 c -0.463,0 -0.895,0 -1.357,0.067 L 5.725,2.424 4.466,7.869 C 4.401,8.333 4.269,8.799 4.169,9.264 3.739,9.197 3.309,9.197 2.845,9.197 c -0.463,0 -0.893,0 -1.324,0.067 L 1.456,8.765 H 1.687 C 1.952,8.732 2.25,8.732 2.481,8.6 2.615,8.533 2.647,8.333 2.647,8.201 2.647,8.068 2.481,7.404 2.448,7.205 L 1.025,1.295 C 0.926,0.963 0.893,0.697 0.562,0.564 L 0.165,0.465 H 0.032 Z"
       style="fill:#231f20;fill-opacity:1;fill-rule:nonzero;stroke:none"
       transform="matrix(1.3333333,0,0,-1.3333333,143.40827,107.14507)"
       clip-path="url(#clipPath321)" />
    <path
       id="path322"
       d="M 0,0 C 0.166,0.133 0.894,0.664 1.06,0.664 1.192,0.664 1.192,0.531 1.192,0.431 1.192,0.266 1.158,0.1 1.126,-0.066 L 1.027,-0.564 0.496,-2.855 0.43,-3.287 C 0.365,-3.619 0.332,-3.918 0.396,-4.218 0.43,-4.283 0.463,-4.382 0.53,-4.482 c 0.099,-0.067 0.198,-0.1 0.298,-0.1 0.098,0 0.232,0.033 0.33,0.066 0.232,0.067 0.431,0.233 0.596,0.333 0.464,0.298 0.861,0.63 1.325,0.962 L 2.912,-2.855 2.284,-3.32 C 2.218,-3.354 1.986,-3.485 1.953,-3.485 c -0.133,0 -0.166,0.098 -0.166,0.198 0,0.299 0.066,0.631 0.131,0.897 L 2.25,-0.831 2.615,0.564 C 2.681,0.896 2.747,1.162 2.747,1.461 2.747,1.593 2.681,1.825 2.549,1.892 2.516,1.959 2.382,1.959 2.317,1.959 2.218,1.959 2.086,1.926 2.052,1.892 1.39,1.66 0.43,0.763 -0.165,0.332 Z m 2.483,3.22 c 0.53,0 0.827,0.465 0.827,1.03 0,0.398 -0.297,0.73 -0.663,0.73 C 2.15,4.98 1.82,4.515 1.82,3.984 1.82,3.52 2.052,3.22 2.483,3.22"
       style="fill:#231f20;fill-opacity:1;fill-rule:nonzero;stroke:none"
       transform="matrix(1.3333333,0,0,-1.3333333,159.40293,101.25693)"
       clip-path="url(#clipPath323)" />
    <path
       id="path324"
       d="m 0,0 c 0.198,0 0.463,-0.1 0.596,-0.266 0.197,-0.199 0.231,-0.564 0.231,-0.83 0,-0.863 -0.264,-2.291 -1.257,-2.291 -0.629,0 -0.894,0.532 -0.894,1.162 0,0.432 0.132,1.03 0.265,1.428 C -0.86,-0.299 -0.497,0 0,0 m -1.721,-5.611 c -0.464,-0.199 -0.861,-0.333 -1.291,-0.631 -0.398,-0.333 -0.794,-0.862 -0.794,-1.427 0,-0.532 0.43,-1.13 0.86,-1.329 0.563,-0.265 1.126,-0.332 1.721,-0.332 1.225,0 3.012,0.598 3.012,2.258 0,0.664 -0.497,1.128 -0.96,1.493 l -1.026,0.798 -0.067,0.099 c -0.164,0.167 -0.263,0.266 -0.164,0.532 0.198,0.266 0.496,0.365 0.761,0.498 0.43,0.199 0.993,0.431 1.256,0.829 0.399,0.532 0.531,1.063 0.531,1.694 0,0.199 -0.067,0.399 -0.098,0.597 0,0.067 -0.034,0.067 -0.034,0.134 L 3.045,-0.465 3.176,0.199 3.11,0.333 2.217,0.299 1.391,0.333 1.29,0.365 C 0.927,0.531 0.662,0.598 0.264,0.598 c -0.329,0 -0.661,-0.166 -0.96,-0.299 -0.628,-0.266 -1.158,-0.431 -1.489,-1.129 -0.264,-0.465 -0.363,-0.863 -0.363,-1.395 0,-1.261 0.86,-1.659 1.852,-1.627 L -0.96,-4.05 -1.754,-4.616 c -0.066,-0.132 -0.066,-0.299 -0.033,-0.431 0.066,-0.199 0.132,-0.365 0.298,-0.497 z m 1.455,-0.896 c 0.365,-0.266 0.796,-0.597 0.796,-1.097 0,-0.896 -0.927,-1.261 -1.589,-1.261 -0.761,0 -1.687,0.399 -1.687,1.395 0,0.797 0.561,1.228 1.158,1.526 0.132,0.067 0.231,0.134 0.363,0.167 z"
       style="fill:#231f20;fill-opacity:1;fill-rule:nonzero;stroke:none"
       transform="matrix(1.3333333,0,0,-1.3333333,168.07427,99.441867)"
       clip-path="url(#clipPath325)" />
    <path
       id="path326"
       d="M 0,0 0.198,0.133 C 0.332,0.232 0.827,0.631 0.993,0.465 0.993,0.433 1.026,0.366 1.026,0.333 1.059,0.034 0.993,-0.265 0.926,-0.564 L 0.695,-1.693 0.463,-2.721 C 0.364,-3.154 0.232,-3.585 0.232,-4.05 c 0,-0.299 0.065,-0.531 0.297,-0.664 0.166,-0.067 0.233,-0.1 0.364,-0.067 1.093,0.266 2.285,1.826 2.846,2.823 0.067,0.132 0.1,0.232 0.166,0.332 L 3.541,-3.088 c -0.1,-0.431 -0.165,-0.797 -0.165,-1.227 0,-0.167 0.065,-0.333 0.231,-0.399 0.066,-0.034 0.132,-0.067 0.199,-0.067 0.066,0.033 0.132,0.033 0.198,0.067 0.696,0.297 1.291,0.829 1.854,1.328 L 5.725,-3.021 5.197,-3.454 c -0.199,-0.131 -0.53,-0.264 -0.53,0.167 0,0.067 0.131,0.731 0.166,0.863 l 0.264,1.296 0.331,1.261 0.132,0.565 0.165,0.597 c 0.033,0.099 0.067,0.166 0.067,0.266 l -0.099,0.1 C 5.295,1.561 4.833,1.394 4.402,1.428 V 1.295 C 4.302,0.598 4.203,0.167 4.004,-0.497 3.773,-1.162 3.541,-1.626 3.178,-2.224 2.946,-2.589 2.251,-3.585 1.853,-3.585 c -0.132,0 -0.165,0.066 -0.198,0.165 -0.034,0.299 0.033,0.598 0.1,0.897 l 0.661,2.856 c 0.067,0.265 0.133,0.531 0.133,0.763 0,0.298 -0.066,0.465 -0.166,0.565 -0.099,0.1 -0.265,0.1 -0.53,0 C 1.124,1.394 0.497,0.831 -0.132,0.366 Z"
       style="fill:#231f20;fill-opacity:1;fill-rule:nonzero;stroke:none"
       transform="matrix(1.3333333,0,0,-1.3333333,172.44267,100.992)"
       clip-path="url(#clipPath327)" />
    <path
       id="path328"
       d="M 0,0 C 0.167,0.764 0.529,1.959 1.357,1.959 1.721,1.959 1.92,1.627 1.92,1.262 1.92,0.797 1.688,0.398 1.424,0.066 1.125,-0.299 0.662,-0.532 0.231,-0.631 0.099,-0.664 -0.033,-0.73 -0.165,-0.763 Z M 2.549,-2.191 C 2.085,-2.523 1.225,-3.088 0.662,-3.088 c -0.628,0 -0.959,0.399 -0.959,1.095 0,0.266 0.032,0.565 0.065,0.865 0.266,0.065 0.563,0.099 0.828,0.198 0.364,0.133 0.761,0.266 1.125,0.432 0.795,0.398 1.324,0.962 1.324,1.958 0,0.731 -0.496,1.13 -1.158,1.13 -0.265,0 -0.63,-0.1 -0.861,-0.2 C 0.827,2.291 0.662,2.191 0.498,2.092 0.297,1.959 0.099,1.859 -0.099,1.693 -0.861,1.129 -1.124,0.564 -1.356,-0.398 c -0.132,-0.498 -0.299,-1.361 -0.299,-1.86 0,-1.095 0.497,-1.693 1.49,-1.693 1.092,0 1.953,0.797 2.846,1.394 z"
       style="fill:#231f20;fill-opacity:1;fill-rule:nonzero;stroke:none"
       transform="matrix(1.3333333,0,0,-1.3333333,183.27533,102.09813)"
       clip-path="url(#clipPath329)" />
    <path
       id="path330"
       d="m 0,0 c -0.099,-0.432 -0.198,-0.897 -0.198,-1.362 0,-0.332 0.033,-0.831 0.464,-0.831 0.265,0 0.562,0.167 0.794,0.334 l 0.53,0.331 c 0.331,0.233 0.629,0.499 0.959,0.731 L 2.351,-0.432 C 2.219,-0.564 2.053,-0.698 1.854,-0.797 l -0.132,-0.1 c -0.1,-0.067 -0.231,-0.165 -0.331,-0.165 -0.132,0 -0.165,0.165 -0.165,0.298 0,0.332 0.065,0.764 0.132,1.096 L 2.45,5.843 C 2.583,6.441 2.714,7.038 2.847,7.669 L 2.714,7.802 C 1.921,7.47 1.093,7.304 0.232,7.171 L 0.2,6.772 h 0.463 c 0.165,-0.033 0.364,0 0.497,-0.166 0.099,-0.132 0,-0.464 -0.033,-0.63 L 1.027,5.378 0.729,3.651 0.297,1.693 Z"
       style="fill:#231f20;fill-opacity:1;fill-rule:nonzero;stroke:none"
       transform="matrix(1.3333333,0,0,-1.3333333,188.42573,104.44387)"
       clip-path="url(#clipPath331)" />
    <path
       id="path332"
       d="M 0,0 C 0.629,0.033 1.224,0.066 1.854,0.066 2.515,0.066 3.111,0.033 3.74,0 L 3.806,0.465 3.408,0.498 c -0.33,0 -0.661,-0.033 -0.661,0.432 0,0.199 0,0.364 0.032,0.531 l 0.2,1.428 0.099,0.498 c 0.033,0.398 0.099,0.83 0.165,1.195 H 6.751 L 6.255,1.627 C 6.188,1.328 6.155,1.029 6.057,0.764 6.023,0.697 5.99,0.664 5.957,0.631 5.924,0.597 5.924,0.565 5.892,0.565 5.626,0.465 5.295,0.498 5.03,0.465 L 4.964,0 C 5.593,0.033 6.222,0.066 6.851,0.066 7.513,0.066 8.141,0.033 8.77,0 L 8.835,0.465 8.538,0.498 c -0.198,0 -0.397,0 -0.563,0.067 -0.23,0.066 -0.23,0.099 -0.23,0.397 0,0.233 0.034,0.499 0.065,0.731 L 7.876,2.257 8.638,6.906 C 8.704,7.338 8.77,7.802 8.903,8.234 8.936,8.367 8.969,8.633 9.101,8.699 9.333,8.798 9.697,8.732 9.961,8.765 L 9.995,9.23 C 9.399,9.197 8.77,9.164 8.141,9.164 7.513,9.164 6.883,9.197 6.288,9.23 L 6.188,8.765 6.586,8.732 c 0.199,-0.033 0.463,0 0.628,-0.166 0.1,-0.133 0.067,-0.264 0.067,-0.465 L 7.115,7.005 C 7.016,6.408 6.951,5.844 6.851,5.246 H 3.342 l 0.464,2.59 C 4.004,8.865 4.004,8.732 4.931,8.765 L 5.03,9.23 C 4.401,9.197 3.806,9.164 3.145,9.164 2.515,9.164 1.887,9.197 1.258,9.23 L 1.191,8.765 1.854,8.699 C 2.118,8.666 2.283,8.666 2.283,8.302 2.283,8.101 2.25,7.902 2.217,7.703 L 2.051,6.707 1.324,2.091 1.191,1.262 C 1.125,0.996 1.125,0.697 0.926,0.597 0.662,0.465 0.331,0.498 0.065,0.465 Z"
       style="fill:#231f20;fill-opacity:1;fill-rule:nonzero;stroke:none"
       transform="matrix(1.3333333,0,0,-1.3333333,195.91867,107.14507)"
       clip-path="url(#clipPath333)" />
    <path
       id="path334"
       d="M 0,0 C 0.166,0.731 0.531,1.926 1.357,1.926 1.721,1.926 1.92,1.626 1.92,1.262 1.92,0.797 1.689,0.399 1.457,0.067 1.125,-0.332 0.662,-0.531 0.232,-0.664 0.1,-0.698 -0.033,-0.73 -0.165,-0.763 Z M 2.549,-2.191 C 2.084,-2.523 1.225,-3.087 0.662,-3.087 c -0.628,0 -0.927,0.398 -0.927,1.062 0,0.298 0.034,0.598 0.067,0.896 0.264,0.067 0.53,0.067 0.794,0.167 0.363,0.166 0.761,0.264 1.158,0.463 0.762,0.4 1.291,0.964 1.291,1.96 C 3.045,2.192 2.549,2.59 1.92,2.59 1.622,2.59 1.291,2.49 1.026,2.391 0.861,2.291 0.695,2.192 0.497,2.092 0.298,1.959 0.1,1.827 -0.066,1.694 -0.861,1.129 -1.093,0.565 -1.356,-0.398 c -0.1,-0.498 -0.298,-1.362 -0.298,-1.858 0,-1.097 0.496,-1.695 1.489,-1.695 1.091,0 1.952,0.797 2.846,1.395 z"
       style="fill:#231f20;fill-opacity:1;fill-rule:nonzero;stroke:none"
       transform="matrix(1.3333333,0,0,-1.3333333,210.7448,102.0988)"
       clip-path="url(#clipPath335)" />
    <path
       id="path336"
       d="m 0,0 c 0.133,0.133 0.695,0.597 0.862,0.597 0.164,0 0.197,-0.166 0.197,-0.331 0,-0.166 -0.033,-0.433 -0.065,-0.598 L 0.695,-2.059 0.463,-3.221 C 0.366,-3.619 0.265,-4.051 0.133,-4.449 l 0.132,-0.166 c 0.298,0.166 0.629,0.166 0.96,0.232 0.1,0 0.232,0 0.331,0.033 l 0.066,0.466 0.132,0.763 0.165,0.763 c 0.1,0.366 0.166,0.598 0.298,0.963 0.266,0.631 0.629,1.561 1.359,1.561 0.196,0 0.329,-0.033 0.496,-0.199 0.033,0 0.065,-0.034 0.098,-0.067 L 4.303,0 c 0,0.597 0.133,1.195 0.265,1.826 -0.232,0.1 -0.431,0.1 -0.596,0.033 C 3.772,1.793 3.641,1.693 3.476,1.561 3.177,1.295 2.912,0.896 2.747,0.532 2.483,-0.033 2.217,-0.564 1.986,-1.129 l -0.099,-0.066 0.099,0.399 0.099,0.364 0.232,1.13 C 2.384,0.996 2.449,1.361 2.35,1.66 2.35,1.727 2.317,1.793 2.251,1.826 2.152,1.926 2.019,1.926 1.854,1.859 1.722,1.826 1.589,1.727 1.491,1.66 1.092,1.395 0.729,1.129 0.366,0.797 0.198,0.63 0.034,0.498 -0.165,0.332 Z"
       style="fill:#231f20;fill-opacity:1;fill-rule:nonzero;stroke:none"
       transform="matrix(1.3333333,0,0,-1.3333333,215.81907,101.21267)"
       clip-path="url(#clipPath337)" />
    <path
       id="path338"
       d="M 0,0 C 0.263,0.232 0.561,0.499 0.893,0.564 0.992,0.531 1.025,0.432 1.025,0.332 0.992,0.199 0.992,0.066 0.992,-0.067 L 0.925,-0.498 0.793,-1.395 0.561,-2.424 0.462,-2.822 0.364,-3.088 C 0.263,-3.52 0.132,-3.917 0,-4.316 l 0.132,-0.166 c 0.396,0.099 0.86,0.199 1.29,0.232 0,0.167 0.033,0.333 0.067,0.531 0.065,0.233 0.099,0.498 0.165,0.731 0.033,0.099 0.098,0.265 0.165,0.431 0.199,0.697 0.431,1.229 0.827,1.826 0.232,0.333 0.993,1.461 1.49,1.262 C 4.169,0.499 4.202,0.465 4.202,0.432 4.334,0.265 4.169,-0.266 4.136,-0.465 L 3.508,-3.022 C 3.475,-3.287 3.375,-3.685 3.375,-3.917 c 0,-0.267 -0.033,-0.366 0.133,-0.599 0.033,-0.033 0.131,-0.099 0.264,-0.132 0.066,0 0.132,0 0.232,0.033 0.761,0.232 1.356,0.83 2.018,1.362 L 5.89,-2.922 C 5.725,-3.088 5.029,-3.685 4.831,-3.486 4.698,-3.354 4.864,-2.789 4.897,-2.59 l 0.066,0.399 0.066,0.266 0.067,0.265 0.331,1.394 0.198,0.996 c 0.067,0.232 0.067,0.333 0.067,0.598 0,0.2 -0.067,0.399 -0.265,0.464 C 5.36,1.859 5.294,1.859 5.229,1.893 5.162,1.893 5.062,1.859 4.997,1.859 4.831,1.792 4.698,1.727 4.565,1.66 3.805,1.262 2.679,0.1 2.216,-0.698 L 1.885,-1.361 2.25,0.199 c 0.066,0.365 0.198,0.93 0.198,1.295 0,0.133 0,0.199 -0.132,0.298 -0.033,0.067 -0.1,0.067 -0.166,0.067 -0.067,0.034 -0.132,0 -0.198,0 C 1.786,1.826 1.621,1.727 1.455,1.627 1.124,1.428 0.827,1.163 0.627,0.996 0.364,0.797 0.098,0.564 -0.133,0.332 Z"
       style="fill:#231f20;fill-opacity:1;fill-rule:nonzero;stroke:none"
       transform="matrix(1.3333333,0,0,-1.3333333,221.99867,101.1684)"
       clip-path="url(#clipPath339)" />
    <path
       id="path340"
       d="m 0,0 c -0.232,-1.361 -1.192,-3.254 -2.251,-4.018 -0.033,-0.033 -0.098,-0.066 -0.132,-0.033 -0.066,0.033 -0.131,0.067 -0.165,0.133 -0.033,0.133 -0.066,0.266 -0.066,0.398 0,0.465 0.198,1.295 0.298,1.76 0.166,0.698 0.331,1.461 0.694,2.059 0.166,0.265 0.464,0.398 0.762,0.398 0.298,0 0.661,-0.166 0.926,-0.299 z M 0.861,1.029 C 0.497,1.229 0.1,1.395 -0.33,1.395 c -0.332,0 -0.431,0 -0.729,-0.133 -0.563,-0.2 -1.423,-1.03 -1.885,-1.462 -0.068,-0.066 -0.099,-0.132 -0.167,-0.232 -0.265,-0.531 -0.43,-1.129 -0.562,-1.693 -0.166,-0.697 -0.265,-1.262 -0.265,-1.992 0,-0.432 0.166,-1.029 0.629,-1.029 1.225,0 2.548,2.191 3.11,3.287 l -0.131,-0.564 -0.067,-0.3 -0.232,-1.062 c -0.033,-0.233 -0.066,-0.465 -0.066,-0.698 0,-0.232 0.033,-0.464 0.199,-0.631 0.066,0 0.133,-0.032 0.199,-0.032 0.397,0 0.761,0.265 1.09,0.498 0.366,0.232 0.663,0.531 0.962,0.796 L 1.623,-3.42 C 1.456,-3.619 1.258,-3.751 1.06,-3.918 0.927,-3.951 0.828,-4.084 0.696,-4.051 c -0.067,0.033 -0.099,0.133 -0.099,0.166 -0.068,0.233 0.032,0.531 0.065,0.764 l 0.695,3.42 0.199,0.796 c 0,0.034 0.033,0.1 0.033,0.134 L 1.424,1.395 Z M 1.125,3.32 C 1.324,3.453 1.589,3.585 1.688,3.852 1.722,4.15 1.589,4.481 1.324,4.582 1.225,4.649 1.125,4.649 1.025,4.615 0.894,4.582 0.793,4.515 0.696,4.45 0.497,4.25 0.331,4.018 0.198,3.852 l -1.39,-1.627 h 0.597 z"
       style="fill:#231f20;fill-opacity:1;fill-rule:nonzero;stroke:none"
       transform="matrix(1.3333333,0,0,-1.3333333,236.22787,100.5044)"
       clip-path="url(#clipPath341)" />
    <path
       id="path342"
       d="M 0,0 C 0.264,0.232 0.562,0.499 0.893,0.564 0.993,0.531 1.024,0.432 1.024,0.332 0.993,0.199 0.993,0.066 0.993,-0.067 L 0.925,-0.498 0.792,-1.395 0.562,-2.424 0.463,-2.822 0.364,-3.088 C 0.264,-3.52 0.132,-3.917 0,-4.316 l 0.132,-0.166 c 0.397,0.099 0.861,0.199 1.29,0.232 0,0.167 0.034,0.333 0.066,0.531 0.066,0.233 0.133,0.498 0.166,0.731 0.033,0.099 0.098,0.265 0.165,0.431 0.199,0.697 0.431,1.229 0.828,1.826 C 2.878,-0.398 3.639,0.73 4.136,0.531 4.169,0.499 4.203,0.465 4.203,0.432 4.334,0.265 4.169,-0.266 4.136,-0.465 L 3.506,-3.022 C 3.475,-3.287 3.375,-3.685 3.375,-3.917 c 0,-0.267 -0.033,-0.366 0.131,-0.599 0.033,-0.033 0.133,-0.099 0.265,-0.132 0.066,0 0.134,0 0.233,0.033 0.761,0.232 1.357,0.83 2.017,1.362 L 5.89,-2.922 C 5.724,-3.088 5.03,-3.685 4.831,-3.486 4.698,-3.354 4.865,-2.789 4.897,-2.59 l 0.066,0.399 0.067,0.266 0.067,0.265 0.329,1.394 0.199,0.996 c 0.067,0.232 0.067,0.333 0.067,0.598 0,0.2 -0.067,0.399 -0.266,0.464 C 5.361,1.859 5.294,1.859 5.229,1.893 5.163,1.893 5.062,1.859 4.997,1.859 4.831,1.792 4.698,1.727 4.566,1.66 3.805,1.262 2.68,0.1 2.217,-0.698 L 1.886,-1.361 2.25,0.199 c 0.064,0.365 0.198,0.93 0.198,1.295 0,0.133 0,0.199 -0.134,0.298 -0.032,0.067 -0.097,0.067 -0.163,0.067 -0.068,0.034 -0.133,0 -0.199,0 C 1.786,1.826 1.621,1.727 1.456,1.627 1.125,1.428 0.826,1.163 0.628,0.996 0.364,0.797 0.098,0.564 -0.134,0.332 Z"
       style="fill:#231f20;fill-opacity:1;fill-rule:nonzero;stroke:none"
       transform="matrix(1.3333333,0,0,-1.3333333,239.34053,101.1684)"
       clip-path="url(#clipPath343)" />
    <path
       id="path344"
       d="M 0,0 C 0.529,-0.033 0.759,0.067 0.694,-0.598 0.661,-1.261 0.563,-1.893 0.463,-2.556 c -0.299,0.099 -0.564,0.133 -0.828,0.133 -0.265,0 -0.396,-0.034 -0.628,-0.133 -0.2,-0.067 -0.398,-0.2 -0.563,-0.299 -0.497,-0.298 -1.158,-0.797 -1.457,-1.295 -0.331,-0.498 -0.595,-1.528 -0.694,-2.124 -0.101,-0.499 -0.167,-0.931 -0.167,-1.429 0,-0.365 0.066,-0.731 0.266,-0.996 0.066,-0.066 0.133,-0.133 0.232,-0.199 0.098,-0.033 0.232,-0.066 0.363,-0.066 0.099,0 0.198,0.033 0.332,0.099 1.158,0.632 1.952,1.826 2.58,3.022 0.034,0.066 0.101,0.132 0.133,0.233 l -0.463,-2.126 c -0.033,-0.165 -0.098,-0.431 -0.098,-0.597 0,-0.333 0.131,-0.631 0.462,-0.631 0.63,0 1.556,0.929 2.052,1.328 L 1.853,-7.27 1.555,-7.47 c -0.133,-0.1 -0.464,-0.399 -0.564,-0.399 -0.132,0 -0.198,0.1 -0.198,0.233 0,0.132 0.066,0.399 0.066,0.531 l 0.364,2.091 0.729,3.952 0.066,0.266 0.264,1.36 c 0,0.101 0.034,0.2 0.067,0.3 L 2.216,1.029 C 1.422,0.698 0.595,0.432 -0.232,0.432 L -0.299,0.034 Z m 0.099,-4.316 c -0.232,-0.83 -0.563,-1.66 -1.06,-2.358 -0.165,-0.232 -0.298,-0.431 -0.496,-0.663 -0.132,-0.133 -0.53,-0.532 -0.728,-0.532 -0.132,0 -0.199,0.033 -0.265,0.166 -0.066,0.532 0,1.063 0.098,1.561 0.067,0.299 0.1,0.598 0.2,0.896 0.165,0.665 0.364,1.362 0.695,1.926 0.232,0.167 0.496,0.199 0.761,0.199 0.43,0 0.595,-0.066 0.993,-0.233 z"
       style="fill:#231f20;fill-opacity:1;fill-rule:nonzero;stroke:none"
       transform="matrix(1.3333333,0,0,-1.3333333,253.30667,95.413867)"
       clip-path="url(#clipPath345)" />
    <path
       id="path346"
       d="m 0,0 c 0.132,0.731 0.496,1.926 1.357,1.926 0.364,0 0.562,-0.3 0.562,-0.664 C 1.919,0.797 1.688,0.399 1.424,0.067 1.125,-0.332 0.662,-0.531 0.232,-0.664 0.1,-0.698 -0.034,-0.73 -0.166,-0.763 Z M 2.548,-2.191 C 2.085,-2.523 1.191,-3.087 0.629,-3.087 c -0.629,0 -0.927,0.398 -0.927,1.062 0,0.298 0.033,0.598 0.066,0.896 0.265,0.067 0.564,0.067 0.828,0.167 0.364,0.166 0.761,0.264 1.125,0.463 0.761,0.4 1.324,0.964 1.324,1.96 C 3.045,2.192 2.548,2.59 1.887,2.59 1.622,2.59 1.257,2.49 1.025,2.391 0.828,2.291 0.662,2.192 0.496,2.092 0.297,1.959 0.1,1.827 -0.099,1.694 -0.861,1.129 -1.125,0.565 -1.357,-0.398 -1.49,-0.896 -1.655,-1.76 -1.655,-2.256 c 0,-1.097 0.496,-1.695 1.489,-1.695 1.093,0 1.953,0.797 2.846,1.395 z"
       style="fill:#231f20;fill-opacity:1;fill-rule:nonzero;stroke:none"
       transform="matrix(1.3333333,0,0,-1.3333333,258.9316,102.0988)"
       clip-path="url(#clipPath347)" />
    <path
       id="path348"
       d="m 0,0 0.166,-0.398 c 0.265,0.232 0.561,0.364 0.893,0.364 0.397,0 0.694,-0.066 1.091,-0.165 l 0.729,-0.199 c 0.43,-0.1 0.662,-0.133 1.092,-0.166 0.232,0 0.597,0 0.597,0.332 0.132,0.597 0.264,1.195 0.429,1.759 l -0.33,0.034 -0.265,-0.764 -0.1,-0.034 -0.86,0.1 -0.696,0.1 C 2.417,0.996 2.185,1.029 1.953,0.963 1.721,0.93 1.489,0.863 1.158,0.697 L 5.063,5.179 5.229,5.844 4.997,5.977 4.931,5.91 C 4.864,5.811 4.832,5.711 4.732,5.644 4.601,5.544 4.402,5.479 4.236,5.479 c -0.331,0 -0.397,0 -0.729,0.099 L 2.283,5.877 c -0.232,0.066 -0.364,0.1 -0.596,0.1 -0.198,0 -0.364,-0.034 -0.562,-0.1 -0.033,0 -0.033,-0.033 -0.066,-0.033 L 0.496,3.951 0.86,3.917 1.025,4.382 1.092,4.548 c 0.033,0 0.033,0.034 0.033,0.067 0.198,0.033 0.331,0.033 0.497,0.033 L 2.515,4.516 c 0.231,-0.034 0.43,-0.034 0.662,-0.034 0.265,0 0.497,0.034 0.728,0.133 0.033,0.033 0.099,0.067 0.165,0.099 z"
       style="fill:#231f20;fill-opacity:1;fill-rule:nonzero;stroke:none"
       transform="matrix(1.3333333,0,0,-1.3333333,263.33133,106.61373)"
       clip-path="url(#clipPath349)" />
    <path
       id="path350"
       d="m 0,0 h -2.679 v -6.95 c 0,-1.561 -0.368,-2.921 -1.734,-2.921 -1.365,0 -1.734,1.36 -1.734,2.921 V 0 h -2.626 v -7.454 c 0,-3.322 1.733,-4.783 4.36,-4.783 2.625,0 4.413,1.461 4.413,4.783 z"
       style="fill:#231f20;fill-opacity:1;fill-rule:nonzero;stroke:none"
       transform="matrix(1.3333333,0,0,-1.3333333,155.28973,72.8396)"
       clip-path="url(#clipPath351)" />
    <path
       id="path352"
       d="M 0,0 H 2.358 L 2.258,8.207 5.621,0 H 8.783 V 12.035 H 6.474 L 6.525,3.877 H 6.474 L 3.262,12.035 H 0 Z"
       style="fill:#231f20;fill-opacity:1;fill-rule:nonzero;stroke:none"
       transform="matrix(1.3333333,0,0,-1.3333333,157.8704,88.886533)"
       clip-path="url(#clipPath353)" />
    <path
       id="path354"
       d="m 132.206,775.225 h -2.56 v 12.035 h 2.56 z"
       style="fill:#231f20;fill-opacity:1;fill-rule:nonzero;stroke:none"
       transform="matrix(1.3333333,0,0,-1.3333333,0,1122.52)"
       clip-path="url(#clipPath355)" />
    <path
       id="path356"
       d="M 0,0 H 3.164 L 6.426,12.035 H 3.815 L 1.657,2.567 -0.501,12.035 h -2.711 z"
       style="fill:#231f20;fill-opacity:1;fill-rule:nonzero;stroke:none"
       transform="matrix(1.3333333,0,0,-1.3333333,182.76427,88.886533)"
       clip-path="url(#clipPath357)" />
    <path
       id="path358"
       d="M 0,0 H 6.928 V 2.266 H 2.56 V 4.984 H 6.524 V 7.25 H 2.56 v 2.519 h 4.216 v 2.266 H 0 Z"
       style="fill:#231f20;fill-opacity:1;fill-rule:nonzero;stroke:none"
       transform="matrix(1.3333333,0,0,-1.3333333,193.27213,88.886533)"
       clip-path="url(#clipPath359)" />
    <path
       id="path360"
       d="m 0,0 h 2.559 v 4.733 h 0.502 c 0.954,0 1.305,-0.503 1.807,-2.568 L 5.419,0 H 8.081 L 7.126,3.274 C 6.675,4.733 6.625,5.64 5.771,5.941 c 1.256,0.404 1.857,1.46 1.857,3.072 0,2.065 -1.405,3.022 -3.112,3.022 H 0 Z m 2.559,9.769 h 0.653 c 0.954,0 1.857,-0.202 1.857,-1.36 0,-1.36 -1.054,-1.36 -1.857,-1.36 H 2.559 Z"
       style="fill:#231f20;fill-opacity:1;fill-rule:nonzero;stroke:none"
       transform="matrix(1.3333333,0,0,-1.3333333,205.18613,88.886533)"
       clip-path="url(#clipPath361)" />
    <path
       id="path362"
       d="m 0,0 c 0.854,-0.353 1.958,-0.504 2.861,-0.504 2.106,0 4.216,0.857 4.216,3.979 0,4.329 -4.568,3.021 -4.568,4.984 0,1.007 1.105,1.108 1.757,1.108 0.701,0 1.455,-0.201 2.108,-0.554 l 0.15,2.468 c -0.652,0.301 -1.557,0.452 -2.46,0.452 -1.905,0 -4.166,-0.806 -4.166,-3.675 0,-4.382 4.518,-2.971 4.518,-5.237 0,-0.957 -0.752,-1.159 -1.555,-1.159 -1.055,0 -2.007,0.353 -2.66,0.805 z"
       style="fill:#231f20;fill-opacity:1;fill-rule:nonzero;stroke:none"
       transform="matrix(1.3333333,0,0,-1.3333333,217.90107,88.4836)"
       clip-path="url(#clipPath363)" />
    <path
       id="path364"
       d="m 175.169,775.225 h -2.558 v 12.035 h 2.558 z"
       style="fill:#231f20;fill-opacity:1;fill-rule:nonzero;stroke:none"
       transform="matrix(1.3333333,0,0,-1.3333333,0,1122.52)"
       clip-path="url(#clipPath365)" />
    <path
       id="path366"
       d="m 0,0 h 2.561 v 9.668 h 2.36 v 2.367 H -2.357 V 9.668 H 0 Z"
       style="fill:#231f20;fill-opacity:1;fill-rule:nonzero;stroke:none"
       transform="matrix(1.3333333,0,0,-1.3333333,238.97987,88.886533)"
       clip-path="url(#clipPath367)" />
    <path
       id="path368"
       d="M 0,0 H 2.609 L 3.362,2.567 H 6.977 L 7.68,0 h 2.809 L 6.775,12.035 H 3.663 Z M 6.373,4.833 H 3.966 l 1.253,4.734 z"
       style="fill:#231f20;fill-opacity:1;fill-rule:nonzero;stroke:none"
       transform="matrix(1.3333333,0,0,-1.3333333,245.20573,88.886533)"
       clip-path="url(#clipPath369)" />
    <path
       id="path370"
       d="m 0,0 c 0.854,-0.353 1.957,-0.504 2.862,-0.504 2.057,0 4.167,0.857 4.167,3.979 0,4.329 -4.47,3.021 -4.47,4.984 0,1.007 1.056,1.108 1.658,1.108 0.702,0 1.454,-0.201 2.108,-0.554 l 0.202,2.468 c -0.654,0.301 -1.558,0.452 -2.512,0.452 -1.856,0 -4.115,-0.806 -4.115,-3.675 0,-4.382 4.468,-2.971 4.468,-5.237 0,-0.957 -0.702,-1.159 -1.506,-1.159 -1.056,0 -1.958,0.353 -2.66,0.805 z"
       style="fill:#231f20;fill-opacity:1;fill-rule:nonzero;stroke:none"
       transform="matrix(1.3333333,0,0,-1.3333333,260.9316,88.4836)"
       clip-path="url(#clipPath371)" />
    <path
       id="path372"
       d="m 0,0 2.482,-0.021 c -0.106,-0.22 -1.446,-4.353 -1.919,-4.336 -0.498,0.024 -0.97,0.4 -1.182,0.8 C -1.002,-2.667 0,-0.063 0,-0.063"
       style="fill:#a42235;fill-opacity:1;fill-rule:nonzero;stroke:none"
       transform="matrix(1.3333333,0,0,-1.3333333,109.52347,113.03627)"
       clip-path="url(#clipPath373)" />
    <path
       id="path374"
       d="m 0,0 c -0.374,0.187 -0.97,0.171 -1.63,0.261 v -1.96 C -0.839,-1.887 -0.146,-1.993 0.253,-1.862 0.934,-1.738 1.092,-0.146 0,0"
       style="fill:#a42235;fill-opacity:1;fill-rule:nonzero;stroke:none"
       transform="matrix(1.3333333,0,0,-1.3333333,134.61453,99.691867)"
       clip-path="url(#clipPath375)" />
    <path
       id="path376"
       d="m 0,0 c -0.494,-0.817 -1.295,-3.1 -2.021,-5.924 -0.292,-1.139 -0.914,-2.783 -1.072,-3.34 -0.158,-0.559 -0.605,-1.727 -1.141,-1.495 -0.535,0.231 -1.718,0.917 -0.61,2.635 0.307,0.478 1.795,4.513 2.13,5.72 0.289,1.043 0.966,2.975 1.619,4.825 0.653,1.849 0.636,1.675 1.106,2.889"
       style="fill:#a42235;fill-opacity:1;fill-rule:nonzero;stroke:none"
       transform="matrix(1.3333333,0,0,-1.3333333,86.5528,97.043467)"
       clip-path="url(#clipPath377)" />
    <path
       id="path378"
       d="m 0,0 c -1.186,0.208 -1.282,0.226 -2.001,0.285 -0.897,0.075 -1.211,0.443 -1.5,-0.78 -0.226,-0.956 -0.38,-1.69 -0.462,-2.927 -0.083,-1.237 -0.391,-3.88 -1.443,-4.214 -1.052,-0.335 -1.511,0.455 -1.41,1.599 0.102,1.143 0.683,2.91 0.863,3.545 0.182,0.634 0.743,2.918 0.743,2.918 0,0 0.039,0.396 -1.248,0.281 -1.287,-0.116 -1.718,-0.259 -3.099,-0.513 -0.93,-0.172 -1.578,-0.475 -2.013,-1.526 -0.443,-1.07 -1.022,-5.108 -1.391,-6.192 -0.091,-0.267 -0.207,-0.647 -0.338,-1.08 H 1.427 v 8.36 C 0.978,-0.17 0.488,-0.086 0,0"
       style="fill:#a42235;fill-opacity:1;fill-rule:nonzero;stroke:none"
       transform="matrix(1.3333333,0,0,-1.3333333,130.56573,101.59227)"
       clip-path="url(#clipPath379)" />
    <path
       id="path380"
       d="m 0,0 c 0.886,3.592 1.587,7.657 2.044,12.375 0.456,4.718 0.791,10.44 0.891,11.045 0.124,0.752 0.66,1.75 1.502,1.578 C 5.279,24.826 5.134,24.131 5.151,23.48 5.169,22.829 4.806,21.335 4.632,19.122 4.459,16.91 3.965,10.479 3.713,9.379 3.461,8.278 3.478,6.763 3.372,5.929 3.305,5.404 2.754,3.737 3.345,4.059 c 0.592,0.322 1.281,0.544 3.44,0.558 2.361,0.015 2.433,-0.479 2.63,0.069 0.166,0.461 0.726,3.652 1.169,6.005 0.443,2.353 1.088,5.076 1.156,6.754 0.069,1.677 0.203,3.661 0.566,3.967 0.363,0.305 0.833,0.395 1.056,-0.018 0.191,-0.356 0.263,-0.621 0.259,-1.235 -0.003,-0.63 0.098,-2.058 -0.35,-4.321 -0.446,-2.263 -0.387,-2.09 -0.586,-3.325 C 12.479,11.235 12.44,11.09 12.278,10.049 12.142,9.174 11.841,7.028 11.723,6.275 11.611,5.569 11.252,4.157 11.463,4.08 12.107,3.842 14.875,3.616 15.641,3.538 v 24.168 l -34.427,0.029 V 10.551 c 0.403,0.845 0.491,1.559 0.769,2.282 0.469,1.214 1.756,4.72 1.756,4.72 0,0 0.667,1.898 1.92,1.958 0.742,0.035 1.752,-0.607 2.319,-2.001 1.252,-3.078 0.977,-8.166 0.395,-11.497 -0.583,-3.331 -0.854,-4.207 -0.426,-3.839 0.428,0.369 1.642,2.823 1.949,3.325 0.879,1.441 2.067,3.797 3.274,4.776 1.206,0.98 2.128,0.482 2.392,0.352 1.438,-0.705 1.572,-2.815 1.723,-3.556 0.15,-0.74 0.004,-5.15 -0.349,-6.677 -0.262,-1.128 -0.306,-1.688 -0.431,-3.126 -0.097,-1.104 -0.978,-2.086 -1.976,-1.677 -0.839,0.344 -0.15,1.826 -0.051,2.166 0.494,1.7 0.988,3.577 0.955,5.759 C -4.604,6.034 -4.814,7.974 -5.344,8.451 -5.873,8.928 -6.479,8.335 -6.479,8.335 -7.082,7.739 -8.747,4.746 -9.369,3.538 -9.991,2.33 -11.075,-0.264 -11.75,-0.826 c -0.673,-0.56 -0.787,-0.662 -1.16,-0.559 -0.373,0.102 -1.641,0.218 -1.284,1.958 0.355,1.74 0.398,4.123 0.676,5.459 0.341,1.642 0.358,10.603 -0.766,10.706 -0.988,0.09 -1.417,-2.289 -1.682,-3.06 -0.545,-1.584 -0.996,-3.71 -1.491,-4.883 -0.331,-0.783 -0.906,-2.433 -1.323,-3.554 L -18.786,-6.796 H -1.59 C -1.215,-5.132 -0.578,-2.339 0,0"
       style="fill:#a42235;fill-opacity:1;fill-rule:nonzero;stroke:none"
       transform="matrix(1.3333333,0,0,-1.3333333,111.61453,104.03173)"
       clip-path="url(#clipPath381)" />
  </g>
</svg>
